# xmcd
#
# Track frame offsets: 
#        150
#        21790
#        47738
#        70950
#        92883
#        115348
#        143318
#        160225
#        184755
#        206603
#
# Disc length: 3047 seconds
#
# Revision: 2
# Processed by: cddbd v1.5.2PL0 Copyright (c) Steve Scherf et al.
# Submitted via: ExactAudioCopy v1.0b3
#
DISCID=850be50a
DTITLE=Tuan Vu - Nhac Yeu Cau 2
DYEAR=1991
DGENRE=Soul
TTITLE0=Thuo ban dau
TTITLE1=De quen con tim
TTITLE2=Tinh ky nu
TTITLE3=Bai tango cho em
TTITLE4=Loi dang cho mot cuoc tinh
TTITLE5=Xin thoi gian qua mau
TTITLE6=Chi co em
TTITLE7=Muoi nam tai ngo
TTITLE8=Rung chua thay la
TTITLE9=Cho toi duoc mot lan
EXTD=
EXTT0=
EXTT1=
EXTT2=
EXTT3=
EXTT4=
EXTT5=
EXTT6=
EXTT7=
EXTT8=
EXTT9=
PLAYORDER=
